<!-- Generated by IcoMoon.io -->
<svg version="1.1" xmlns="http://www.w3.org/2000/svg" width="33" height="32" viewBox="0 0 33 32">
<title>alien</title>
<path fill="#02e4c0" d="M13.657 14.516c1.414 2.274 1.206 4.95-0.485 6.032-1.692 1.054-4.215 0.069-5.644-2.205-1.414-2.274-1.193-4.978 0.499-6.032s4.215-0.069 5.63 2.205zM16 23.973c2.773 0 3.467-1.040 3.467-1.040s-0.693 2.773-3.467 2.773-3.467-2.732-3.467-2.773c0 0 0.693 1.040 3.467 1.040zM23.973 12.311c1.692 1.054 1.914 3.758 0.499 6.032-1.428 2.274-3.952 3.259-5.644 2.205-1.692-1.082-1.9-3.758-0.485-6.032s3.938-3.259 5.63-2.205zM16 27.093c3.467 0 11.093-7.127 11.093-12.48s-4.978-9.707-11.093-9.707c-6.115 0-11.093 4.354-11.093 9.707s7.627 12.48 11.093 12.48zM16 2.133c7.627 0 13.867 5.602 13.867 12.48 0 5.658-7.876 15.253-13.867 15.253s-13.867-9.596-13.867-15.253c0-6.878 6.24-12.48 13.867-12.48z"></path>
</svg>
