<!-- Generated by IcoMoon.io -->
<svg version="1.1" xmlns="http://www.w3.org/2000/svg" width="31" height="32" viewBox="0 0 31 32">
<title>facebook</title>
<path fill="#fff" d="M28.821 3.097h-25.641c-0.617 0-1.115 0.498-1.115 1.115v25.641c0 0.617 0.498 1.115 1.115 1.115h25.641c0.617 0 1.115-0.498 1.115-1.115v-25.641c0-0.617-0.498-1.115-1.115-1.115zM25.602 11.232h-2.226c-1.745 0-2.083 0.829-2.083 2.049v2.686h4.167l-0.543 4.205h-3.623v10.797h-4.344v-10.793h-3.634v-4.209h3.634v-3.101c0-3.599 2.198-5.56 5.41-5.56 1.54 0 2.86 0.115 3.247 0.167v3.759h-0.003z"></path>
</svg>
