<!-- Generated by IcoMoon.io -->
<svg version="1.1" xmlns="http://www.w3.org/2000/svg" width="33" height="32" viewBox="0 0 33 32">
<title>infinity</title>
<path fill="#02e4c0" d="M25.040 9.6c-1.856 0-3.609 0.722-4.859 1.972l-9.061 8.042c-0.825 0.825-1.92 1.276-3.093 1.276-2.41 0-4.382-1.946-4.382-4.356s1.972-4.356 4.382-4.356c1.173 0 2.268 0.451 3.145 1.327l1.457 1.289 1.972-1.727-1.65-1.431c-0.629-0.631-1.379-1.142-2.212-1.494l-0.045-0.017c-0.782-0.332-1.691-0.525-2.645-0.525-0.007 0-0.014 0-0.021 0h0.001c-3.841 0-6.96 3.119-6.96 6.933s3.119 6.933 6.96 6.933c1.856 0 3.609-0.722 4.859-1.972l9.061-8.042c0.825-0.825 1.92-1.276 3.093-1.276 2.41 0 4.382 1.946 4.382 4.356s-1.972 4.356-4.382 4.356c-1.16 0-2.268-0.451-3.145-1.327l-1.495-1.302-1.933 1.727 1.65 1.443c0.63 0.628 1.381 1.136 2.214 1.485l0.046 0.017c0.78 0.33 1.687 0.521 2.639 0.521 0.009 0 0.017 0 0.026-0h-0.001c3.841 0 6.96-3.106 6.96-6.92 0-3.866-3.119-6.933-6.96-6.933z"></path>
</svg>
