<!-- Generated by IcoMoon.io -->
<svg version="1.1" xmlns="http://www.w3.org/2000/svg" width="31" height="32" viewBox="0 0 31 32">
<title>linkedin</title>
<path fill="#fff" d="M28.821 3.097h-25.641c-0.617 0-1.115 0.498-1.115 1.115v25.641c0 0.617 0.498 1.115 1.115 1.115h25.641c0.617 0 1.115-0.498 1.115-1.115v-25.641c0-0.617-0.498-1.115-1.115-1.115zM10.332 26.846h-4.135v-13.301h4.135v13.301zM8.266 11.726c0 0 0 0 0 0-0.496 0-0.958-0.151-1.34-0.409l0.008 0.005c-0.391-0.264-0.695-0.63-0.877-1.060l-0.006-0.016c-0.115-0.271-0.182-0.586-0.182-0.917 0-1.324 1.073-2.397 2.397-2.397 0.827 0 1.557 0.419 1.988 1.057l0.005 0.008c0.253 0.374 0.404 0.835 0.404 1.332v0c-0.004 1.324-1.076 2.397-2.397 2.397zM25.814 26.846h-4.132v-6.47c0-1.543-0.028-3.526-2.149-3.526-2.15 0-2.481 1.679-2.481 3.414v6.581h-4.128v-13.301h3.965v1.819h0.056c0.55-1.045 1.899-2.15 3.912-2.15 4.188 0 4.958 2.756 4.958 6.337v7.295z"></path>
</svg>
