<!-- Generated by IcoMoon.io -->
<svg version="1.1" xmlns="http://www.w3.org/2000/svg" width="31" height="32" viewBox="0 0 31 32">
<title>map</title>
<path fill="#02e4c0" d="M15.484 19.613c3.416 0 6.194-2.546 6.194-5.677s-2.778-5.677-6.194-5.677-6.194 2.546-6.194 5.677c0 3.131 2.778 5.677 6.194 5.677zM15.484 11.097c1.708 0 3.097 1.273 3.097 2.839s-1.389 2.839-3.097 2.839-3.097-1.273-3.097-2.839 1.389-2.839 3.097-2.839z"></path>
<path fill="#02e4c0" d="M14.661 30.699c0.24 0.175 0.528 0.269 0.823 0.269s0.583-0.094 0.823-0.269c0.431-0.311 10.573-7.766 10.532-17.073 0-6.375-5.094-11.561-11.355-11.561s-11.355 5.187-11.355 11.554c-0.041 9.314 10.1 16.77 10.531 17.080zM15.484 4.955c4.697 0 8.516 3.889 8.516 8.678 0.030 6.414-6.228 12.173-8.516 14.062-2.287-1.89-8.546-7.651-8.516-14.069 0-4.782 3.819-8.671 8.516-8.671z"></path>
</svg>
