<!-- Generated by IcoMoon.io -->
<svg version="1.1" xmlns="http://www.w3.org/2000/svg" width="33" height="32" viewBox="0 0 33 32">
<title>spoon</title>
<path fill="#02e4c0" d="M10.909 17.922l3.789-4.082-8.288-8.914c-0.643-0.692-1.754-0.505-2.156 0.389-0.951 2.149-0.603 4.789 1.044 6.577l5.61 6.029zM19.987 15.311c2.048 1.024 4.927 0.303 7.056-1.991 2.557-2.755 3.053-6.707 1.084-8.827-1.955-2.106-5.623-1.587-8.194 1.168-2.129 2.293-2.798 5.394-1.848 7.601l-12.13 13.068c-0.25 0.27-0.391 0.635-0.391 1.017s0.141 0.747 0.391 1.017c0.25 0.27 0.59 0.421 0.944 0.421s0.694-0.152 0.944-0.421l8.288-8.899 8.274 8.914c0.124 0.134 0.271 0.239 0.433 0.312s0.335 0.109 0.511 0.109c0.175 0 0.349-0.037 0.511-0.109s0.309-0.178 0.433-0.312 0.222-0.292 0.289-0.467c0.067-0.174 0.102-0.361 0.102-0.55s-0.035-0.376-0.102-0.55c-0.067-0.174-0.165-0.333-0.289-0.467l-8.274-8.914 1.968-2.12z"></path>
</svg>
