<!-- Generated by IcoMoon.io -->
<svg version="1.1" xmlns="http://www.w3.org/2000/svg" width="31" height="32" viewBox="0 0 31 32">
<title>twitter</title>
<path fill="#fff" d="M29.935 7.859c-1.025 0.443-2.14 0.763-3.289 0.887 1.193-0.711 2.086-1.834 2.512-3.158-1.043 0.633-2.258 1.114-3.552 1.372l-0.072 0.012c-0.524-0.561-1.155-1.014-1.862-1.327l-0.036-0.014c-0.667-0.297-1.444-0.47-2.262-0.47-0.004 0-0.009 0-0.013 0h0.001c-3.165 0-5.711 2.573-5.711 5.731 0 0.443 0.054 0.887 0.141 1.314-4.739-0.249-8.967-2.52-11.777-5.997-0.512 0.877-0.78 1.876-0.777 2.892 0 1.989 1.008 3.742 2.546 4.774-0.906-0.036-1.791-0.286-2.582-0.729v0.071c0 2.785 1.963 5.093 4.579 5.624-0.451 0.122-0.969 0.193-1.503 0.195h-0.001c-0.372 0-0.724-0.037-1.079-0.087 0.723 2.271 2.83 3.92 5.339 3.974-1.963 1.542-4.421 2.449-7.091 2.449-0.479 0-0.921-0.017-1.38-0.070 2.532 1.629 5.537 2.57 8.772 2.57 10.504 0 16.252-8.728 16.252-16.303 0-0.249 0-0.497-0.017-0.746 1.112-0.816 2.087-1.827 2.864-2.963z"></path>
</svg>
