<svg aria-hidden="true" style="position: absolute; width: 0; height: 0; overflow: hidden;" version="1.1" xmlns="http://www.w3.org/2000/svg" xmlns:xlink="http://www.w3.org/1999/xlink">
<defs>
<symbol id="icon-alien" viewBox="0 0 33 32">
<path fill="#02e4c0" style="fill: var(--color1, #02e4c0)" d="M13.657 14.516c1.414 2.274 1.206 4.95-0.485 6.032-1.692 1.054-4.215 0.069-5.644-2.205-1.414-2.274-1.193-4.978 0.499-6.032s4.215-0.069 5.63 2.205zM16 23.973c2.773 0 3.467-1.040 3.467-1.040s-0.693 2.773-3.467 2.773-3.467-2.732-3.467-2.773c0 0 0.693 1.040 3.467 1.040zM23.973 12.311c1.692 1.054 1.914 3.758 0.499 6.032-1.428 2.274-3.952 3.259-5.644 2.205-1.692-1.082-1.9-3.758-0.485-6.032s3.938-3.259 5.63-2.205zM16 27.093c3.467 0 11.093-7.127 11.093-12.48s-4.978-9.707-11.093-9.707c-6.115 0-11.093 4.354-11.093 9.707s7.627 12.48 11.093 12.48zM16 2.133c7.627 0 13.867 5.602 13.867 12.48 0 5.658-7.876 15.253-13.867 15.253s-13.867-9.596-13.867-15.253c0-6.878 6.24-12.48 13.867-12.48z"></path>
</symbol>
<symbol id="icon-facebook" viewBox="0 0 31 32">
<path fill="#fff" style="fill: var(--color2, #fff)" d="M28.821 3.097h-25.641c-0.617 0-1.115 0.498-1.115 1.115v25.641c0 0.617 0.498 1.115 1.115 1.115h25.641c0.617 0 1.115-0.498 1.115-1.115v-25.641c0-0.617-0.498-1.115-1.115-1.115zM25.602 11.232h-2.226c-1.745 0-2.083 0.829-2.083 2.049v2.686h4.167l-0.543 4.205h-3.623v10.797h-4.344v-10.793h-3.634v-4.209h3.634v-3.101c0-3.599 2.198-5.56 5.41-5.56 1.54 0 2.86 0.115 3.247 0.167v3.759h-0.003z"></path>
</symbol>
<symbol id="icon-infinity" viewBox="0 0 33 32">
<path fill="#02e4c0" style="fill: var(--color1, #02e4c0)" d="M25.040 9.6c-1.856 0-3.609 0.722-4.859 1.972l-9.061 8.042c-0.825 0.825-1.92 1.276-3.093 1.276-2.41 0-4.382-1.946-4.382-4.356s1.972-4.356 4.382-4.356c1.173 0 2.268 0.451 3.145 1.327l1.457 1.289 1.972-1.727-1.65-1.431c-0.629-0.631-1.379-1.142-2.212-1.494l-0.045-0.017c-0.782-0.332-1.691-0.525-2.645-0.525-0.007 0-0.014 0-0.021 0h0.001c-3.841 0-6.96 3.119-6.96 6.933s3.119 6.933 6.96 6.933c1.856 0 3.609-0.722 4.859-1.972l9.061-8.042c0.825-0.825 1.92-1.276 3.093-1.276 2.41 0 4.382 1.946 4.382 4.356s-1.972 4.356-4.382 4.356c-1.16 0-2.268-0.451-3.145-1.327l-1.495-1.302-1.933 1.727 1.65 1.443c0.63 0.628 1.381 1.136 2.214 1.485l0.046 0.017c0.78 0.33 1.687 0.521 2.639 0.521 0.009 0 0.017 0 0.026-0h-0.001c3.841 0 6.96-3.106 6.96-6.92 0-3.866-3.119-6.933-6.96-6.933z"></path>
</symbol>
<symbol id="icon-linkedin" viewBox="0 0 31 32">
<path fill="#fff" style="fill: var(--color2, #fff)" d="M28.821 3.097h-25.641c-0.617 0-1.115 0.498-1.115 1.115v25.641c0 0.617 0.498 1.115 1.115 1.115h25.641c0.617 0 1.115-0.498 1.115-1.115v-25.641c0-0.617-0.498-1.115-1.115-1.115zM10.332 26.846h-4.135v-13.301h4.135v13.301zM8.266 11.726c0 0 0 0 0 0-0.496 0-0.958-0.151-1.34-0.409l0.008 0.005c-0.391-0.264-0.695-0.63-0.877-1.060l-0.006-0.016c-0.115-0.271-0.182-0.586-0.182-0.917 0-1.324 1.073-2.397 2.397-2.397 0.827 0 1.557 0.419 1.988 1.057l0.005 0.008c0.253 0.374 0.404 0.835 0.404 1.332v0c-0.004 1.324-1.076 2.397-2.397 2.397zM25.814 26.846h-4.132v-6.47c0-1.543-0.028-3.526-2.149-3.526-2.15 0-2.481 1.679-2.481 3.414v6.581h-4.128v-13.301h3.965v1.819h0.056c0.55-1.045 1.899-2.15 3.912-2.15 4.188 0 4.958 2.756 4.958 6.337v7.295z"></path>
</symbol>
<symbol id="icon-map" viewBox="0 0 31 32">
<path fill="#02e4c0" style="fill: var(--color1, #02e4c0)" d="M15.484 19.613c3.416 0 6.194-2.546 6.194-5.677s-2.778-5.677-6.194-5.677-6.194 2.546-6.194 5.677c0 3.131 2.778 5.677 6.194 5.677zM15.484 11.097c1.708 0 3.097 1.273 3.097 2.839s-1.389 2.839-3.097 2.839-3.097-1.273-3.097-2.839 1.389-2.839 3.097-2.839z"></path>
<path fill="#02e4c0" style="fill: var(--color1, #02e4c0)" d="M14.661 30.699c0.24 0.175 0.528 0.269 0.823 0.269s0.583-0.094 0.823-0.269c0.431-0.311 10.573-7.766 10.532-17.073 0-6.375-5.094-11.561-11.355-11.561s-11.355 5.187-11.355 11.554c-0.041 9.314 10.1 16.77 10.531 17.080zM15.484 4.955c4.697 0 8.516 3.889 8.516 8.678 0.030 6.414-6.228 12.173-8.516 14.062-2.287-1.89-8.546-7.651-8.516-14.069 0-4.782 3.819-8.671 8.516-8.671z"></path>
</symbol>
<symbol id="icon-phone" viewBox="0 0 31 32">
<path fill="#02e4c0" style="fill: var(--color1, #02e4c0)" d="M20.793 1.032h-10.618c-2.203 0-3.982 1.823-3.982 4.082v21.771c0 2.259 1.778 4.082 3.982 4.082h10.618c2.203 0 3.982-1.823 3.982-4.082v-21.771c0-2.259-1.778-4.082-3.982-4.082zM18.138 28.246h-5.309v-1.361h5.309v1.361zM22.452 24.164h-13.935v-19.050h13.935v19.050z"></path>
</symbol>
<symbol id="icon-spoon" viewBox="0 0 33 32">
<path fill="#02e4c0" style="fill: var(--color1, #02e4c0)" d="M10.909 17.922l3.789-4.082-8.288-8.914c-0.643-0.692-1.754-0.505-2.156 0.389-0.951 2.149-0.603 4.789 1.044 6.577l5.61 6.029zM19.987 15.311c2.048 1.024 4.927 0.303 7.056-1.991 2.557-2.755 3.053-6.707 1.084-8.827-1.955-2.106-5.623-1.587-8.194 1.168-2.129 2.293-2.798 5.394-1.848 7.601l-12.13 13.068c-0.25 0.27-0.391 0.635-0.391 1.017s0.141 0.747 0.391 1.017c0.25 0.27 0.59 0.421 0.944 0.421s0.694-0.152 0.944-0.421l8.288-8.899 8.274 8.914c0.124 0.134 0.271 0.239 0.433 0.312s0.335 0.109 0.511 0.109c0.175 0 0.349-0.037 0.511-0.109s0.309-0.178 0.433-0.312 0.222-0.292 0.289-0.467c0.067-0.174 0.102-0.361 0.102-0.55s-0.035-0.376-0.102-0.55c-0.067-0.174-0.165-0.333-0.289-0.467l-8.274-8.914 1.968-2.12z"></path>
</symbol>
<symbol id="icon-twitter" viewBox="0 0 31 32">
<path fill="#fff" style="fill: var(--color2, #fff)" d="M29.935 7.859c-1.025 0.443-2.14 0.763-3.289 0.887 1.193-0.711 2.086-1.834 2.512-3.158-1.043 0.633-2.258 1.114-3.552 1.372l-0.072 0.012c-0.524-0.561-1.155-1.014-1.862-1.327l-0.036-0.014c-0.667-0.297-1.444-0.47-2.262-0.47-0.004 0-0.009 0-0.013 0h0.001c-3.165 0-5.711 2.573-5.711 5.731 0 0.443 0.054 0.887 0.141 1.314-4.739-0.249-8.967-2.52-11.777-5.997-0.512 0.877-0.78 1.876-0.777 2.892 0 1.989 1.008 3.742 2.546 4.774-0.906-0.036-1.791-0.286-2.582-0.729v0.071c0 2.785 1.963 5.093 4.579 5.624-0.451 0.122-0.969 0.193-1.503 0.195h-0.001c-0.372 0-0.724-0.037-1.079-0.087 0.723 2.271 2.83 3.92 5.339 3.974-1.963 1.542-4.421 2.449-7.091 2.449-0.479 0-0.921-0.017-1.38-0.070 2.532 1.629 5.537 2.57 8.772 2.57 10.504 0 16.252-8.728 16.252-16.303 0-0.249 0-0.497-0.017-0.746 1.112-0.816 2.087-1.827 2.864-2.963z"></path>
</symbol>
</defs>
</svg>
