<svg xmlns="http://www.w3.org/2000/svg" width="31" height="30" fill="none"><path fill="#02E4C0" d="M12.803 13.609c1.326 2.132 1.131 4.641-.455 5.655-1.586.988-3.952.065-5.291-2.067-1.326-2.132-1.118-4.667.468-5.655 1.586-.988 3.952-.065 5.278 2.067ZM15 22.475c2.6 0 3.25-.975 3.25-.975s-.65 2.6-3.25 2.6-3.25-2.561-3.25-2.6c0 0 .65.975 3.25.975Zm7.475-10.933c1.586.988 1.794 3.523.468 5.655-1.339 2.132-3.705 3.055-5.291 2.067-1.586-1.014-1.781-3.523-.455-5.655 1.326-2.132 3.692-3.055 5.278-2.067ZM15 25.4c3.25 0 10.4-6.682 10.4-11.7 0-5.018-4.667-9.1-10.4-9.1-5.733 0-10.4 4.082-10.4 9.1S11.75 25.4 15 25.4ZM15 2c7.15 0 13 5.252 13 11.7C28 19.004 20.616 28 15 28S2 19.004 2 13.7C2 7.252 7.85 2 15 2Z"/></svg>