<svg xmlns="http://www.w3.org/2000/svg" width="189" height="58" fill="none"><path fill="#fff" d="M24.3766 29.375c1.3166.7667 1.975 2.125 1.975 4.075v.85c0 1.5334-.4084 2.7-1.225 3.5-.8.8-1.9667 1.2-3.5 1.2h-6.85c-.3334 0-.5917-.0916-.775-.275-.1834-.1833-.275-.4416-.275-.7749V23.1c0-.3333.0916-.5916.275-.775.1833-.1833.4416-.275.775-.275h6.525c1.3166 0 2.3333.35 3.05 1.05.7166.7 1.075 1.7 1.075 3v.675c0 .5334-.0917 1.025-.275 1.475-.1834.45-.4417.825-.775 1.125Zm-8.55-.6h6.25c.4333-.05.75-.25.95-.6.2-.3666.3-.8333.3-1.4V26.1c0-.7166-.15-1.2166-.45-1.5-.3-.3-.825-.45-1.575-.45h-5.475v4.625Zm8.425 4.675c0-.9333-.2-1.5916-.6-1.975-.4-.4-1.075-.6-2.025-.6h-5.8V36.9h5.8c.9333 0 1.6-.2 2-.6.4166-.4.625-1.0666.625-2v-.85ZM43.6729 37.525c.0666.15.1.3167.1.5 0 .4-.225.6917-.675.875-.15.0667-.3167.1-.5.1-.4 0-.6917-.2249-.875-.6749l-1.35-3.2751h-7.775l-1.3 3.2751c-.1834.45-.475.6749-.875.6749-.1667 0-.325-.0333-.475-.1-.4667-.1666-.7-.4583-.7-.875 0-.1833.0333-.35.1-.5l5.95-14.65c.25-.55.6416-.825 1.175-.825h.05c.55.0334.9166.3084 1.1.825l6.05 14.65Zm-10.25-4.575h6.1l-3.125-7.575-2.975 7.575ZM50.6713 39c-.7 0-1.05-.3499-1.05-1.0499V24.175h-4.85c-.7 0-1.05-.35-1.05-1.05 0-.7.35-1.05 1.05-1.05h11.8c.7 0 1.05.35 1.05 1.05 0 .7-.35 1.05-1.05 1.05h-4.85v13.7751c0 .3333-.0917.5916-.275.7749-.1833.1834-.4417.275-.775.275ZM66.2277 39c-.7 0-1.05-.3499-1.05-1.0499V24.175h-4.85c-.7 0-1.05-.35-1.05-1.05 0-.7.35-1.05 1.05-1.05h11.8c.7 0 1.05.35 1.05 1.05 0 .7-.35 1.05-1.05 1.05h-4.85v13.7751c0 .3333-.0916.5916-.275.7749-.1833.1834-.4416.275-.775.275ZM77.7592 39c-.7 0-1.05-.3499-1.05-1.0499V23.1c0-.7.35-1.05 1.05-1.05.7 0 1.05.35 1.05 1.05v13.8h6.925c.7 0 1.05.3501 1.05 1.0501S86.4342 39 85.7342 39h-7.975ZM100.46 36.9c.333 0 .591.0917.775.275.183.1834.275.4417.275.7751 0 .3333-.092.5916-.275.7749-.184.1834-.442.275-.775.275h-8.9754c-.3334 0-.5917-.0916-.775-.275-.1834-.1833-.275-.4416-.275-.7749V23.1c0-.3333.0916-.5916.275-.775.1833-.1833.4416-.275.775-.275h8.9754c.333 0 .591.0917.775.275.183.1834.275.4417.275.775 0 .3334-.092.5917-.275.775-.184.1834-.442.275-.775.275h-7.9254v5.25h4.975c.3333 0 .5916.0917.775.275.1833.1834.275.4417.275.775 0 .3334-.0917.5917-.275.775-.1834.1834-.4417.275-.775.275h-4.975v5.4h7.9254ZM114.809 39c-.7 0-1.05-.3499-1.05-1.0499V23.1c0-.7.35-1.05 1.05-1.05.7 0 1.05.35 1.05 1.05v13.8h6.925c.7 0 1.05.3501 1.05 1.0501S123.484 39 122.784 39h-7.975ZM157.01 22.05c.333 0 .592.0917.775.275.183.1834.275.4417.275.775v14.8501c0 .3333-.092.5916-.275.7749-.183.1834-.442.275-.775.275-.2 0-.383-.0499-.55-.15-.167-.1-.333-.2583-.5-.475L146.435 26.1v11.8501c0 .3333-.092.5916-.275.7749-.183.1834-.442.275-.775.275s-.592-.0916-.775-.275c-.183-.1833-.275-.4416-.275-.7749V23.1c0-.3333.092-.5916.275-.775.183-.1833.442-.275.775-.275.2 0 .375.05.525.15.167.1.342.2584.525.475l9.525 12.2751V23.1c0-.3333.092-.5916.275-.775.183-.1833.442-.275.775-.275ZM164.506 39c-.333 0-.592-.0916-.775-.275-.183-.1833-.275-.4416-.275-.7749V23.1c0-.3333.092-.5916.275-.775.183-.1833.442-.275.775-.275h6.025c2.183 0 3.783.5167 4.8 1.55 1.033 1.0167 1.55 2.6167 1.55 4.8v4.25c0 2.1834-.517 3.7917-1.55 4.825-1.017 1.0167-2.617 1.525-4.8 1.525h-6.025Zm6.025-2.1c1.083 0 1.925-.1333 2.525-.4.617-.2666 1.058-.7 1.325-1.3.267-.6166.4-1.4666.4-2.55V28.4c0-1.0833-.133-1.925-.4-2.525-.267-.6166-.708-1.0583-1.325-1.325-.6-.2666-1.442-.4-2.525-.4h-4.975V36.9h4.975Z"/><path fill="url(#a)" d="m131.43 19.149 10.811 20.7-16.334 1.9903 5.523-22.6903Z"/><rect width="34" height="4" x="12" y="12" fill="url(#b)" rx="2"/><defs><linearGradient id="a" x1="131.43" x2="134.955" y1="19.149" y2="48.0758" gradientUnits="userSpaceOnUse"><stop stop-color="#4452FE"/><stop offset="1" stop-color="#4452FE" stop-opacity="0"/></linearGradient><linearGradient id="b" x1="9" x2="52" y1="9.99999" y2="19" gradientUnits="userSpaceOnUse"><stop stop-color="#02E4C0"/><stop offset="1" stop-color="#4452FE" stop-opacity="0"/></linearGradient></defs></svg>