<svg xmlns="http://www.w3.org/2000/svg" width="193" height="193" fill="none"><path fill="#181818" fill-rule="evenodd" d="M191.421 96.2106c0 52.5834-42.627 95.2104-95.2104 95.2104C43.6272 191.421 1 148.794 1 96.2106 1 43.6273 43.6272 1 96.2106 1s95.2104 42.6273 95.2104 95.2106Zm-28.762.0584c0 36.663-29.721 66.384-66.3842 66.384-36.6626 0-66.3836-29.721-66.3836-66.384 0-36.6627 29.721-66.3837 66.3836-66.3837 36.6632 0 66.3842 29.721 66.3842 66.3837Z" clip-rule="evenodd"/><path fill="#02E4C0" d="m118.172 19.9882-2.376 1.3302-.872 2.9372-2.133-.6329 3.408-11.486 2.133.6329-1.748 5.8906 7.425-4.2063 2.396.7107-6.348 3.7047 3.236 7.8689-2.495-.7399-2.626-6.0101Z"/><path fill="#02E4C0" fill-rule="evenodd" d="m106.118 19.1316 2.021 3.7704 2.38.2797-2.278-4.2313c.854-.2271 1.539-.6291 2.057-1.2231.501-.596.812-1.335.918-2.2359.101-.8669-.013-1.6558-.347-2.3327-.334-.6769-.854-1.2377-1.579-1.6676-.725-.4299-1.606-.7057-2.643-.8276l-4.895-.5754-1.399 11.8989 2.21.2597.408-3.4676 2.686.3156c.204.024.357.042.461.0369Zm2.329-5.7406c.445.4659.632 1.0738.542 1.8387-.09.7649-.413 1.3129-.954 1.663-.543.367-1.298.4851-2.267.3712l-2.583-.3037.557-4.7425 2.584.3036c.969.1139 1.676.4038 2.121.8697ZM91.5354 22.4318c-1.2121.0857-2.34-.0918-3.3518-.5693-1.0106-.4604-1.8308-1.1401-2.4607-2.0392-.6298-.8992-.9767-1.9213-1.0589-3.0822-.0821-1.161.1161-2.2388.6131-3.2177.4969-.9789 1.2144-1.7503 2.1489-2.3655.9357-.5981 2.0273-.9327 3.2395-1.0185 1.2121-.0858 2.34.0917 3.3506.5521 1.0118.4775 1.8308 1.1402 2.4607 2.0393.6299.8991.9767 1.9212 1.0601 3.0992.0834 1.1781-.1161 2.2388-.613 3.2177-.497.9789-1.2145 1.7503-2.1502 2.3484-.9345.6152-2.0261.9499-3.2383 1.0357Zm-.1377-1.9463c.8024-.0568 1.5062-.2954 2.1125-.6986.6063-.4032 1.0835-.9346 1.3961-1.6087.3138-.6571.4508-1.3875.3941-2.1899-.0568-.8024-.2954-1.5062-.6998-2.1295-.4033-.6064-.9517-1.0823-1.6087-1.3961-.6571-.3138-1.3862-.4338-2.1887-.377-.8024.0568-1.5074.2782-2.1137.6815-.6063.4032-1.0822.9516-1.3961 1.6087-.3126.6741-.4496 1.4045-.3928 2.2069.0568.8024.2953 1.5062.6985 2.1125.4045.6234.9517 1.0823 1.6088 1.3961.657.3138 1.3874.4508 2.1898.3941Z" clip-rule="evenodd"/><path fill="#02E4C0" d="m80.348 23.7197.31-12.6179-2.0303.618-.2646 9.652-5.5645-7.8778-1.9648.5981-.3122 9.6129-5.5005-7.8436-2.2104.6728 7.2874 10.3054 2.2759-.6928.3001-9.3588 5.4143 7.6194 2.2596-.6877ZM60.0052 29.559l.9941 1.5787-7.6036 4.7881-6.3842-10.1381 7.4008-4.6605.9941 1.5787-5.518 3.4748 1.6599 2.6359 4.8953-3.0826.9758 1.5496-4.8952 3.0827 1.7602 2.7952 5.7208-3.6025ZM37.7175 35.8801l3.0059-2.5945 6.5981 7.6444 1.6843-1.4538-6.598-7.6444 3.0059-2.5945-1.2301-1.4253-7.6963 6.6428 1.2302 1.4253Z"/><path fill="#02E4C0" fill-rule="evenodd" d="m40.2589 43.9027-3.9131 4.5357 1.328 2.7054-1.4982 1.7365-5.5497-11.9083 1.4311-1.6588 12.6044 3.7311-1.5205 1.7624-2.882-.904Zm-1.8026-.5832L33.015 41.609l2.5009 5.1188 2.9404-3.4083ZM30.403 55.7411l4.2699-.2631 1.2473-2.0459-4.7955.3035c.15-.8708.0705-1.6609-.2532-2.3795-.3325-.7039-.8743-1.2948-1.6488-1.767-.7453-.4544-1.5098-.68-2.2643-.659-.7546.0211-1.4813.2596-2.1745.739s-1.3116 1.1648-1.8551 2.0562l-2.566 4.2086 10.2293 6.237 1.1583-1.8998-2.9811-1.8176 1.4077-2.3089c.107-.1753.1871-.3069.226-.4035Zm-4.2447-4.5124c.6091-.21 1.2396-.1262 1.8972.2747.6576.401 1.0208.9231 1.1131 1.5607.107.6466-.1008 1.3819-.6086 2.2148l-1.3544 2.2213-4.0771-2.4859 1.3543-2.2212c.5079-.833 1.0664-1.3545 1.6755-1.5644Z" clip-rule="evenodd"/><path fill="#02E4C0" d="m27.7748 63.7238 1.7301.6981-3.3623 8.3328-11.1104-4.483 3.2726-8.1106 1.73.6981-2.44 6.0472 2.8887 1.1656 2.1647-5.3648 1.6983.6853-2.1647 5.3647 3.0633 1.2361 2.5297-6.2695ZM12.483 77.674l-.5336 2.16 11.6312 2.8732 2.0358-8.2416-1.8277-.4515-1.5023 6.0815-9.8034-2.4216ZM21.2917 84.9857l1.8574.1737-.8366 8.9465-11.9288-1.1155.8144-8.708 1.8575.1737-.6072 6.4926 3.1014.2901.5387-5.7599 1.8234.1705-.5387 5.7599 3.289.3076.6295-6.7312ZM22.1386 104.322c.4766-1.012.6557-2.106.569-3.318-.0696-.973-.3051-1.8655-.7052-2.6605-.3988-.778-.9428-1.4254-1.6318-1.9423l-1.2631 1.5317c1.0012.8035 1.555 1.8277 1.6454 3.0911.0586.819-.0766 1.567-.3887 2.241-.3121.675-.7706 1.222-1.3766 1.626-.606.404-1.3266.644-2.129.701-.8023.058-1.5499-.077-2.2072-.391-.6573-.313-1.2061-.789-1.611-1.412-.4049-.623-.6282-1.345-.6868-2.164-.0904-1.263.2948-2.3548 1.1714-3.2926l-1.4513-1.3376c-.6084.6098-1.0546 1.3281-1.3386 2.1549-.284.8268-.39 1.7443-.3204 2.7173.0868 1.212.4198 2.269 1.0187 3.204.6159.934 1.3879 1.651 2.3671 2.147.9793.496 2.0402.695 3.2182.611 1.1779-.085 2.1997-.432 3.0984-1.063.8998-.613 1.5619-1.433 2.0215-2.444ZM24.4335 113.011c.2846 1.182.2875 2.29-.0165 3.367-.2873 1.072-.8058 1.99-1.5927 2.742-.7829.77-1.7338 1.281-2.8819 1.557-1.1481.277-2.2272.255-3.2747-.073-1.0474-.329-1.9267-.91-2.6876-1.73-.7443-.824-1.2464-1.812-1.531-2.993-.2285-.949-.2745-1.871-.1301-2.733.1444-.862.4666-1.644.9666-2.346l1.6512 1.081c-.7107 1.07-.9115 2.209-.6149 3.441.1924.798.5312 1.474 1.0329 2.022.5018.548 1.1212.927 1.821 1.128.6999.201 1.4595.212 2.2415.024.7821-.189 1.4535-.544 1.985-1.042.5315-.498.8937-1.113 1.0909-1.83.1971-.716.2077-1.476.0153-2.274-.2966-1.232-1.011-2.151-2.1306-2.779l.9945-1.719c.7645.397 1.4074.947 1.9286 1.648.5252.719.904 1.561 1.1325 2.509Z"/><path fill="#02E4C0" fill-rule="evenodd" d="m27.066 129.639-2.3645-5.504 2.0747-2.195-.9188-2.138-8.8732 9.698.8648 2.013 13.136.224-.9053-2.107-3.0137.009Zm-7.5983.005 3.9203-4.143 1.7768 4.136-5.6971.007Z" clip-rule="evenodd"/><path fill="#02E4C0" d="m30.4525 139.687 4.4537-.18 1.1037 1.525-3.4346.246 3.0903 4.271-1.2618.913-3.0903-4.271-1.2937 3.175-1.1037-1.525 1.5364-4.154ZM41.3931 147.602l-4.3875.787-.9554 4.324 1.3015 1.361.8484-3.322 3.644 3.809 1.1254-1.077-3.644-3.809 3.369-.712-1.3014-1.361ZM48.9696 154.775l-4.2376 1.382-.3512 4.415 1.4763 1.169.3832-3.408 4.1335 3.272.9666-1.222-4.1335-3.271 3.2389-1.169-1.4762-1.168ZM129.48 22.4702l1.56-3.2952 5.894 2.7895.798-1.6863-7.905-3.7413-5.125 10.8293 2.011.9518 1.962-4.146 5.229 2.4746.805-1.7017-5.229-2.4747ZM141.116 22.1963l1.852 1.2337-5.6 8.4035 5.213 3.4735-1.044 1.5668-7.064-4.7072 6.643-9.9703Z"/><path fill="#02E4C0" fill-rule="evenodd" d="M144.964 38.8581c.35 1.0627.997 2.0032 1.894 2.8237.896.8205 1.89 1.3822 2.98 1.6369 1.078.2673 2.131.257 3.183-.056 1.052-.3131 1.959-.8983 2.757-1.7695.797-.8711 1.3-1.8262 1.519-2.9019.219-1.0757.136-2.126-.214-3.1887-.361-1.0501-1.009-1.9906-1.905-2.811-.896-.8205-1.89-1.3823-2.968-1.6496-1.09-.2546-2.143-.2444-3.195.0687-1.053.313-1.971.9109-2.757 1.7694s-1.288 1.8136-1.507 2.8893c-.219 1.0758-.148 2.1387.213 3.1887Zm5.172 2.4364c-.71-.1624-1.367-.5089-1.961-1.052-.593-.5431-.996-1.1673-1.221-1.86-.224-.6927-.268-1.4055-.094-2.128.163-.7098.509-1.3672 1.052-1.9606.543-.5934 1.167-.9965 1.872-1.2336.692-.2245 1.418-.2565 2.128-.0941.709.1624 1.355.5215 1.949 1.0646.593.5432 1.008 1.1548 1.232 1.8475.225.6927.257 1.4181.094 2.1279-.174.7224-.52 1.3798-1.063 1.9732-.543.5934-1.168.9966-1.86 1.221-.705.2371-1.418.2566-2.128.0941Z" clip-rule="evenodd"/><path fill="#02E4C0" d="m173.053 54.86-12.104 3.5774-1.348-1.9395 5.59-7.4914-8.999 2.5865-1.358-1.9535 7.571-10.0984 1.319 1.8973-5.777 7.6422 9.245-2.653 1.172 1.6865-5.79 7.7136 9.268-2.7104 1.211 1.7427Z"/><path fill="#02E4C0" fill-rule="evenodd" d="M173.843 76.0404c.347-.5299.527-1.1303.528-1.8339.395.374.838.6237 1.363.7383.525.1145 1.055.0828 1.624-.1057.926-.307 1.522-.9014 1.816-1.8102.277-.9034.198-2.0131-.249-3.3615l-1.767-5.3286-11.372 3.7702 1.874 5.6536c.48 1.4459 1.122 2.459 1.912 3.0448.789.5859 1.66.7118 2.651.3832.715-.237 1.257-.615 1.62-1.1502Zm-.777-8.0008 3.135-1.0395.991 2.9893c.243.731.301 1.3427.176 1.835-.147.4815-.472.8057-.992.9781-.504.167-.958.1013-1.347-.2025-.411-.3145-.73-.8401-.972-1.5711l-.991-2.9893Zm-1.337 6.9528c-1.089.3609-1.911-.2683-2.455-1.9092l-1.131-3.4116 3.282-1.088 1.131 3.4117c.544 1.6408.261 2.6362-.827 2.9971Z" clip-rule="evenodd"/><path fill="#02E4C0" d="m174.571 84.7158-4.17.6941-.365-2.1948 4.136-.6885 6.909-5.9214.391 2.3467-5.181 4.4193 6.339 2.5365.359 2.1611-8.418-3.353ZM177.372 103.136c.683-.777 1.059-2.012 1.129-3.7052l.047-1.1458 2.76.3705-.212 5.1475 1.864.077.289-7.0288-6.49-.8838-.119 2.89c-.049 1.1796-.236 1.9946-.565 2.4776-.344.466-.816.686-1.431.661-.565-.024-1-.264-1.307-.722-.306-.475-.451-1.098-.419-1.8845.027-.667.156-1.2955.404-1.902.231-.6243.544-1.1424.921-1.5723l-1.689-1.0116c-.45.5296-.819 1.1825-1.092 1.9764-.289.7932-.443 1.6091-.478 2.4641-.043 1.0429.092 1.9219.406 2.6379.313.715.753 1.264 1.319 1.647.567.383 1.21.581 1.928.61 1.129.047 2.035-.327 2.735-1.103Z"/><path fill="#02E4C0" fill-rule="evenodd" d="M169.749 110.249c.177-.942.571-1.739 1.199-2.387.61-.651 1.411-1.11 2.415-1.356.988-.249 2.105-.265 3.367-.027 1.261.238 2.296.66 3.142 1.254.829.592 1.408 1.311 1.756 2.143.331.829.408 1.714.231 2.656-.178.942-.572 1.738-1.186 2.406-.627.648-1.427 1.107-2.415 1.356-1.004.246-2.122.262-3.383.024-1.262-.237-2.297-.659-3.126-1.251-.846-.595-1.424-1.313-1.756-2.142-.345-.849-.422-1.734-.244-2.676Zm1.9.358c-.158.841.068 1.581.666 2.198.598.618 1.596 1.05 2.975 1.31s2.466.221 3.248-.137c.782-.357 1.262-.964 1.42-1.804.155-.825-.074-1.547-.672-2.165-.597-.618-1.593-1.067-2.972-1.327s-2.469-.204-3.251.154c-.781.358-1.258.947-1.414 1.771ZM174.518 119.545c-.748.284-1.279.815-1.582 1.615-.303.801-.263 1.566.109 2.274.372.709 1.018 1.228 1.946 1.579.928.352 1.756.39 2.52.112.732-.29 1.268-.837 1.571-1.637.303-.801.258-1.55-.115-2.258-.372-.709-1.033-1.234-1.946-1.579-.912-.345-1.755-.39-2.503-.106Zm-.337 3.258c-.246-.367-.288-.786-.125-1.218.158-.417.461-.686.904-.793.433-.129.962-.075 1.57.156.609.23 1.04.54 1.296.929.245.368.294.77.136 1.186-.164.433-.473.718-.9.831-.427.113-.95.043-1.574-.193-.624-.237-1.062-.531-1.307-.898Z" clip-rule="evenodd"/><path fill="#02E4C0" d="m175.831 131.737.594-1.569-8.308-11.894-.594 1.569 8.308 11.894Z"/><path fill="#02E4C0" fill-rule="evenodd" d="M166.454 124.892c-.748.284-1.279.815-1.582 1.615-.303.801-.257 1.55.109 2.274.372.709 1.034 1.234 1.946 1.579.912.345 1.756.39 2.504.106.754-.3 1.284-.831 1.587-1.631.303-.801.258-1.55-.115-2.258-.372-.709-1.033-1.234-1.946-1.579-.912-.346-1.755-.39-2.503-.106Zm-.315 3.248c-.261-.374-.31-.776-.147-1.208.164-.433.467-.702.894-.815.427-.113.956-.059 1.58.177.625.237 1.056.547 1.302.914.245.367.294.77.13 1.202-.164.433-.467.702-.894.815-.443.107-.972.053-1.58-.178-.608-.23-1.04-.54-1.285-.907Z" clip-rule="evenodd"/><path fill="#02E4C0" d="m160.306 143.838-1.705-4.118 1.051-1.562 1.415 3.139 2.943-4.374 1.292.87-2.943 4.373 3.427.12-1.051 1.562-4.429-.01ZM152.055 147.809l1.121 4.314 4.386.62 1.256-1.402-3.378-.591 3.518-3.926-1.159-1.039-3.518 3.926-.969-3.305-1.257 1.403ZM144.985 159.322l-.52-4.427 1.437-1.217.507 3.406 4.023-3.407 1.006 1.188-4.022 3.407 3.265 1.048-1.437 1.217-4.259-1.215ZM108.558 172.831c-.762-.597-1.602-.84-2.537-.727-.985.119-1.779.543-2.376 1.305-.616.746-.857 1.603-.74 2.572.117.968.558 1.76 1.319 2.357.762.597 1.619.839 2.571.723.968-.117 1.743-.555 2.34-1.317.614-.764.855-1.621.738-2.589-.115-.952-.553-1.726-1.315-2.324ZM95.9002 172.641c.9412.013 1.7409.366 2.4162 1.06.6752.694 1.0064 1.52.9934 2.478-.0133.976-.3667 1.793-1.0776 2.468-.6939.675-1.52 1.006-2.4955.993-.9584-.013-1.7752-.366-2.4504-1.06-.6753-.694-1.0062-1.537-.993-2.513.0133-.975.3667-1.792 1.0774-2.45.6939-.675 1.5368-.989 2.5295-.976ZM88.053 173.214c-.5775-.777-1.3234-1.233-2.2547-1.37-.9821-.145-1.8592.055-2.6363.632-.7915.558-1.2499 1.321-1.3921 2.286-.1423.965.0741 1.845.6516 2.622.5775.777 1.3404 1.236 2.2886 1.375.9652.143 1.8278-.076 2.6049-.654.7941-.575 1.2525-1.338 1.3947-2.303.1397-.948-.0792-1.811-.6567-2.588Z"/><path stroke="#4452FE" stroke-linecap="round" stroke-linejoin="round" stroke-miterlimit="1.5" stroke-width="2" d="M96.2748 162.653c36.6632 0 66.3832-29.721 66.3832-66.3841 0-36.6627-29.72-66.3836-66.3832-66.3836-36.6627 0-66.3836 29.7209-66.3836 66.3836 0 36.6631 29.7209 66.3841 66.3836 66.3841Z"/><path stroke="#4452FE" stroke-linecap="round" stroke-linejoin="round" stroke-miterlimit="1.5" stroke-width="2" d="M96.276 191.511c52.594 0 95.23-42.635 95.23-95.2291 0-52.5938-42.636-95.22953-95.23-95.22953-52.5938 0-95.22946 42.63573-95.22946 95.22953 0 52.5941 42.63566 95.2291 95.22946 95.2291Z"/><path fill="#181818" stroke="#fff" stroke-linecap="round" stroke-linejoin="round" stroke-width="2" d="m97.3117 60.8171 10.8763 22.1571 24.323 3.5749-17.6 17.2369 4.154 24.352-21.7533-11.503-21.753 11.503 4.1535-24.352-17.5996-17.2369 24.3226-3.5749 10.8765-22.1571Z"/></svg>