<svg xmlns="http://www.w3.org/2000/svg" width="31" height="30" fill="none"><path fill="#02E4C0" d="M23.475 9.00003c-1.74 0-3.3833.67658-4.5554 1.84847l-8.4946 7.5391c-.77333.7732-1.80042 1.196-2.9 1.196-2.25958 0-4.10833-1.8243-4.10833-4.0836 0-2.2593 1.84875-4.0836 4.10833-4.0836 1.09958 0 2.12667.4228 2.9483 1.2444l1.3655 1.2082 1.8487-1.619-1.5467-1.3411a6.48838 6.48838 0 0 0-2.1168-1.41631 6.4896 6.4896 0 0 0-2.499-.49256C3.92417 9.00003 1 11.9238 1 15.5S3.92417 22 7.525 22c1.74 0 3.3833-.6766 4.5554-1.8485l8.4946-7.539c.7733-.7733 1.8004-1.1961 2.9-1.1961 2.2596 0 4.1083 1.8243 4.1083 4.0836 0 2.2593-1.8487 4.0836-4.1083 4.0836-1.0875 0-2.1267-.4228-2.9483-1.2444L19.125 17.119l-1.8125 1.6189 1.5467 1.3532a6.507 6.507 0 0 0 2.1188 1.4084 6.5111 6.5111 0 0 0 2.497.4884c3.6008 0 6.525-2.9117 6.525-6.4879 0-3.6245-2.9242-6.49997-6.525-6.49997Z"/></svg>