<svg xmlns="http://www.w3.org/2000/svg" width="30" height="31" fill="none"><path fill="#fff" d="M27.92 3H3.08C2.48263 3 2 3.48263 2 4.08v24.84c0 .5974.48263 1.08 1.08 1.08h24.84c.5974 0 1.08-.4826 1.08-1.08V4.08C29 3.48263 28.5174 3 27.92 3ZM10.0089 26.0074H6.00275V13.1216h4.00615v12.8858ZM8.0075 11.3599a2.32161 2.32161 0 0 1-1.29003-.3914 2.32146 2.32146 0 0 1-.85522-1.04203 2.32201 2.32201 0 0 1 4.07592-2.17863 2.32213 2.32213 0 0 1 .39133 1.29004c-.0034 1.28252-1.04287 2.32202-2.322 2.32202Zm16.9999 14.6475h-4.0028V19.74c0-1.4951-.027-3.4155-2.0823-3.4155-2.0824 0-2.403 1.6268-2.403 3.3075v6.3754h-3.9994V13.1216h3.8407v1.7618h.054c.5333-1.0125 1.8394-2.0824 3.7902-2.0824 4.0567 0 4.8026 2.6696 4.8026 6.1391v7.0673Z"/></svg>