<svg xmlns="http://www.w3.org/2000/svg" width="73" height="61" fill="none"><g clip-path="url(#a)"><path fill="#B6DEFF" d="M36.5129.27344C17.1777.27344 2.02949 24.8734.59625 45.6509 6.66386 56.1813 21.2957 60.1396 36.5134 60.1396c15.2167 0 29.8493-3.9583 35.9138-14.489C70.9937 24.8734 55.8475.27344 36.5131.27344"/><path fill="#6C6" d="M67.3747 40.7017s-4.2704-9.2327-8.611-14.6192c-4.3437-5.3887-9.6482-11.2563-12.7845-11.2563-3.1347 0-11.8975 15.5149-15.9175 15.5149-4.0208 0-6.1104-7.0332-11.0538-7.0332-4.9453 0-12.80223 16.9602-12.80223 16.9602l-.53239 2.8753S8.40286 55.245 36.9589 55.245c28.5572 0 30.8394-11.9031 30.8394-11.9031l-.4233-2.6405"/><path fill="#17AD49" d="M30.5093 36.962c-4.4349 0-6.7085-4.3757-7.9411-7.0769-1.1085-2.4332-1.3003-6.2749-4.4454-6.3825.309-.1225.6065-.1949.8854-.1949 4.9433 0 7.0329 7.0332 11.0538 7.0332 4.02 0 12.7828-15.5152 15.9174-15.5152.5907 0 1.2561.2084 1.978.5791-.534-.0704-1.2188-.0214-1.7464.5079-1.0133 1.0135-10.2113 21.0493-15.7017 21.0493Z"/></g><defs><clipPath id="a"><path fill="#fff" d="M.37195.27344h72.1127v60H.37195z"/></clipPath></defs></svg>