<svg xmlns="http://www.w3.org/2000/svg" width="61" height="62" fill="none"><g clip-path="url(#a)"><path fill="#13A049" d="M30.2999 9.56258V26.8079l14.9642-8.6405V.92187L30.2999 9.56259Z" opacity=".5"/><path fill="#A2CC39" d="M30.3 9.56258 15.3361.92188V18.2033L30.3 26.844V9.56258Z" opacity=".5"/><path fill="url(#b)" d="M45.2641.92188 30.3 9.56258 15.3361.92188.37195 9.56258 30.3 26.844 60.2102 9.56258 45.2641.92188Z" opacity=".9"/><path fill="url(#c)" d="M30.3 26.8439.37195 9.5625v17.2814l14.96415 8.6407v17.2636L30.3 61.3889l14.9641-8.6407V35.4846l14.9461-8.6407V9.5625L30.3 26.8439Z"/><path fill="url(#d)" d="M30.2999 26.8439v34.545l14.9642-8.6407V35.4846l14.946-8.6407V9.5625L30.2999 26.8439Z"/><path fill="#231F20" d="M30.2999 44.1074v17.2814l14.9642-8.6407-14.9642-8.6407Z" opacity=".05"/><path fill="#231F20" d="M30.3 61.425V44.1436l-14.9639 8.6407L30.3 61.425Z" opacity=".1"/><path fill="#231F20" d="M15.3361 18.2031.37195 26.8438l14.96415 8.6407L30.3 26.8438l-14.9639-8.6407Z" opacity=".05"/><path fill="#231F20" d="m45.2641 18.2031-14.9642 8.6407 14.9642 8.6407 14.946-8.6407-14.946-8.6407Z" opacity=".05"/></g><defs><linearGradient id="b" x1="60.2174" x2=".37195" y1="13.8806" y2="13.8806" gradientUnits="userSpaceOnUse"><stop stop-color="#37BDA6"/><stop offset="1" stop-color="#8AD3B8"/></linearGradient><linearGradient id="c" x1="60.2174" x2=".37195" y1="35.4747" y2="35.4747" gradientUnits="userSpaceOnUse"><stop offset=".5" stop-color="#4BB6AD"/><stop offset="1" stop-color="#78BBC1"/></linearGradient><linearGradient id="d" x1="30.2945" x2="60.217" y1="35.4747" y2="35.4747" gradientUnits="userSpaceOnUse"><stop stop-color="#4379A7"/><stop offset="1" stop-color="#7CC9B8"/></linearGradient><clipPath id="a"><path fill="#fff" d="M.37195.92188h60v60.7031h-60z"/></clipPath></defs></svg>