<svg xmlns="http://www.w3.org/2000/svg" width="151" height="61" fill="none"><g clip-path="url(#a)"><path fill="#1F70C1" d="M.77441.27344V4.3745H29.9432V.27344H.77441Zm33.30149 0V4.3745h41.5668S71.3968.27344 65.7734.27344H34.0759Zm49.721 0V4.3745h25.1471L107.451.27344H83.7969Zm43.1761 0-1.492 4.10107H150.4V.27344h-23.427ZM.77441 8.24905v4.10105H29.9432V8.24905H.77441Zm33.30149.00585v4.0952h46.3902s-.5417-3.15627-1.4868-4.0952H34.0759Zm49.721 0v4.0952h27.9041l-1.381-4.0952H83.7969Zm40.1911 0-1.381 4.0952H150.4V8.2549h-26.412ZM9.15685 16.2247v4.1063H21.789v-4.1063H9.15685Zm33.30145 0v4.1063h12.6322v-4.1063H42.4583Zm24.919 0v4.1063h12.6322s.802-2.1688.802-4.1066H67.3773v.0003Zm24.802 0v4.1063h22.3957l-1.492-4.1066H92.1793v.0003Zm29.0577 0-1.499 4.1066h22.508v-4.1066h-21.009ZM9.15685 24.2061v4.1005H21.789v-4.1005H9.15685Zm33.30145 0v4.1005h32.2654s2.6991-2.1044 3.559-4.1011H42.4583v.0006Zm49.721 0v4.1005h12.6317v-2.2829l.802 2.2829h23.14l.86-2.2829v2.2829h12.633v-4.1005h-23.714l-1.258 3.4739-1.264-3.4739H92.1793Zm-83.02245 7.975v4.1011H21.789v-4.1011H9.15685Zm33.30145 0v4.1011h35.8244c-.8602-1.9902-3.559-4.1011-3.559-4.1011H42.4583Zm49.721 0v4.1011h12.6317v-4.1011H92.1793Zm14.9267 0 1.528 4.1011h17.35l1.452-4.1011h-20.33Zm22.507 0v4.1011h12.633v-4.1011h-12.633ZM9.15685 40.1568v4.101H21.789v-4.101H9.15685Zm33.30145 0v4.101h12.6322v-4.101H42.4583Zm24.919 0v4.101h13.4342c0-1.9355-.802-4.101-.802-4.101H67.3773Zm24.802 0v4.101h12.6317v-4.101H92.1793Zm17.7947 0 1.481 4.101h11.632l1.492-4.101h-14.605Zm19.639 0v4.101h12.633v-4.101h-12.633ZM1.00271 48.1327v4.1066H30.1715v-4.1069H1.00271v.0003Zm33.07319 0v4.1066h44.9034c.9451-.9404 1.4868-4.1069 1.4868-4.1069H34.0759v.0003Zm49.9492 0v4.1066h20.7859v-4.1069H84.0251v.0003Zm28.8239 0 1.522 4.1066h5.918l1.428-4.1069h-8.868v.0003Zm16.764 0v4.1066h21.015v-4.1069h-21.015v.0003ZM1.00271 56.1138v4.1011H30.1715v-4.1011H1.00271Zm33.07319 0v4.095h31.6975c5.6234 0 9.8693-4.0953 9.8693-4.0953H34.0759v.0003Zm49.9492 0v4.1011h20.7859v-4.1011H84.0251Zm31.7089 0 1.464 4.0891.252.0059 1.486-4.0953h-3.202v.0003Zm13.879 0v4.1011h21.015v-4.1011h-21.015Z"/></g><defs><clipPath id="a"><path fill="#fff" d="M.77441.27344h149.854v60H.77441z"/></clipPath></defs></svg>