<svg xmlns="http://www.w3.org/2000/svg" width="61" height="71" fill="none"><g clip-path="url(#a)"><path fill="#fff" d="M18.7444.20127a2.06836 2.06836 0 0 0-.9821.25523c-.9886.54797-1.3511 1.81805-.8034 2.80594l2.232 4.03031c-5.3775 3.32695-8.9407 9.01005-8.9407 15.49645v1.2051c-1.03294-1.1883-2.55099-1.9385-4.24716-1.9385-3.10781 0-5.6311 2.5233-5.6311 5.6309v17.3458c0 3.1074 2.52352 5.6309 5.6311 5.6309 1.69617 0 3.21422-.7505 4.24686-1.9388v2.4298c0 3.2759 2.6806 5.9562 5.9564 5.9562h1.5113v7.7163c0 3.1078 2.5235 5.6311 5.6311 5.6311 3.1075 0 5.6308-2.5235 5.6308-5.6311v-7.7163h2.6147v7.7163c0 3.1078 2.5235 5.6311 5.6311 5.6311s5.6309-2.5235 5.6309-5.6311v-7.7163h1.5114c3.2757 0 5.9562-2.6803 5.9562-5.9562v-2.4298c1.0327 1.1883 2.551 1.9388 4.2471 1.9388 3.1076 0 5.6309-2.5235 5.6309-5.6309V27.6867c0-3.1076-2.5233-5.6309-5.6309-5.6309-1.6961 0-3.2144.7502-4.2471 1.9385V22.9356c.0005-.0609 0-.1096 0-.1464 0-6.4852-3.5714-12.1627-8.947-15.48989l2.2383-4.03687c.5475-.98789.1851-2.25797-.8035-2.80594a2.06767 2.06767 0 0 0-.982-.25523c-.7301-.00704-1.4466.3778-1.8239 1.05867l-2.3405 4.22812c-2.2884-.84445-4.7784-1.30734-7.3781-1.30734-2.5973 0-5.092.45797-7.3786 1.30078l-2.3402-4.22156C20.1907.57908 19.4744.1947 18.7444.20127Z"/><path fill="#A4C639" d="M6.00313 23.5225c-2.31891 0-4.16414 1.8452-4.16414 4.1641v17.3459c0 2.3189 1.84523 4.1641 4.16414 4.1641s4.16437-1.8452 4.16437-4.1641V27.6866c0-2.3189-1.84546-4.1641-4.16437-4.1641Zm48.56817 0c-2.3192 0-4.1644 1.8452-4.1644 4.1641v17.3459c0 2.3189 1.8452 4.1641 4.1644 4.1641 2.3189 0 4.1641-1.8452 4.1641-4.1641V27.6866c0-2.3189-1.8452-4.1641-4.1641-4.1641ZM23.3489 43.3169c-2.3189 0-4.1643 1.8452-4.1643 4.1644v17.3456c0 2.3189 1.8454 4.1641 4.1643 4.1641 2.319 0 4.1642-1.8452 4.1642-4.1641V47.4813c0-2.3192-1.8452-4.1644-4.1642-4.1644Zm13.8767 0c-2.3192 0-4.1644 1.8452-4.1644 4.1644v17.3456c0 2.3189 1.8452 4.1641 4.1644 4.1641 2.3189 0 4.1641-1.8452 4.1641-4.1641V47.4813c0-2.3192-1.8452-4.1644-4.1641-4.1644Z"/><path fill="#A4C639" d="M18.757 1.66805a.57916.57916 0 0 0-.2806.07641c-.2969.16453-.3944.50578-.2297.80343l2.9337 5.29946c-5.6437 2.93675-9.4561 8.51745-9.4636 14.92245H48.857c-.0077-6.405-3.8198-11.986-9.4636-14.92245l2.9335-5.29922c.165-.29766.0673-.63914-.2297-.80367a.57843.57843 0 0 0-.2805-.07641c-.211-.00234-.4104.10313-.5229.30609l-2.9719 5.35664c-2.431-1.07812-5.1577-1.68351-8.0351-1.68351-2.8774 0-5.6039.60516-8.0351 1.68351l-2.9718-5.35664a.58277.58277 0 0 0-.2185-.22629.5826.5826 0 0 0-.3042-.0798h-.0002ZM11.7168 24.2365v26.9179c-.0013.59.114 1.1743.3392 1.7195.2251.5453.5558 1.0407.9729 1.4578.4172.4171.9126.7477 1.4578.9729a4.48096 4.48096 0 0 0 1.7196.3391h28.1613a4.48096 4.48096 0 0 0 1.7196-.3391 4.47968 4.47968 0 0 0 1.4578-.973c.4171-.4171.7478-.9125.9729-1.4578a4.4791 4.4791 0 0 0 .3391-1.7196V24.2367H11.7168v-.0002Z"/><path fill="#fff" d="M21.7159 12.8726c-.8477 0-1.5496.7017-1.5496 1.5494 0 .848.7019 1.5497 1.5496 1.5497.848 0 1.5497-.7017 1.5497-1.5497 0-.8477-.7017-1.5494-1.5497-1.5494Zm17.1418 0c-.848 0-1.5497.7017-1.5497 1.5494 0 .848.7017 1.5497 1.5497 1.5497.8477 0 1.5496-.7017 1.5496-1.5497 0-.8477-.7019-1.5494-1.5496-1.5494Z"/></g><defs><clipPath id="a"><path fill="#fff" d="M.37195 0h60v70.5469h-60z"/></clipPath></defs></svg>