<svg xmlns="http://www.w3.org/2000/svg" width="61" height="61" fill="none"><g clip-path="url(#a)"><path fill="url(#b)" d="M13.5119.27344h33.72c7.2572 0 13.14 5.88281 13.14 13.13996v33.72c0 7.2572-5.8828 13.14-13.14 13.14h-33.72c-7.25717 0-13.13998-5.8828-13.13998-13.14v-33.72C.37192 6.15625 6.25473.27344 13.5119.27344Z"/><path fill="#fff" d="m19.6005 43.8224.0056.0019-2.0514 3.5531c-.7489 1.297-2.4073 1.7414-3.7043.9926-1.2968-.7488-1.7414-2.4073-.9926-3.7043l1.5112-2.6175.1451-.2513c.259-.3721.8981-1.0148 2.1767-.8939 0 0 3.0086.3265 3.2264 1.8903 0 0 .0295.5144-.3167 1.0291Zm29.096-9.075h-6.397c-.4357-.0293-.6258-.1849-.7008-.2754l-.0047-.0082-6.8477-11.8608-.0089.0059-.4106-.5887c-.6732-1.0294-1.7419 1.6031-1.7419 1.6031-1.2762 2.9334.1812 6.2683.6891 7.2764l9.5114 16.4742c.7486 1.2968 2.407 1.7414 3.7043.9923 1.2968-.7488 1.7414-2.4072.9923-3.7043l-2.3782-4.1193c-.0462-.0999-.1263-.3708.3614-.372h3.2313c1.4977 0 2.7118-1.214 2.7118-2.7117s-1.2141-2.7117-2.7118-2.7117v.0002Zm-12.4251 3.6863s.3415 1.7369-.9797 1.7369H11.6435c-1.4977 0-2.71174-1.214-2.71174-2.7117s1.21404-2.7117 2.71174-2.7117h6.0797c.9815-.0567 1.214-.6235 1.214-.6235l.0057.0029 7.9359-13.7457-.0023-.0004c.1446-.2656.0241-.5166.0032-.5562l-2.621-4.5396c-.7488-1.2968-.3044-2.9555.9926-3.7041 1.297-.7488 2.9555-.3047 3.7043.9924l1.2155 2.1054 1.2133-2.1017c.7489-1.2968 2.4073-1.7414 3.7043-.9923 1.2971.7488 1.7414 2.407.9926 3.704L25.038 34.4158c-.0483.1165-.063.2993.2963.3314h6.6009l.0014.0644s3.8152.0593 4.3348 3.6221Z"/></g><defs><linearGradient id="b" x1="30.3719" x2="30.3719" y1=".27344" y2="60.2734" gradientUnits="userSpaceOnUse"><stop stop-color="#17C9FB"/><stop offset="1" stop-color="#1A74E8"/></linearGradient><clipPath id="a"><path fill="#fff" d="M.37192.27344h60v60h-60z"/></clipPath></defs></svg>