<svg xmlns="http://www.w3.org/2000/svg" width="61" height="66" fill="none"><g clip-path="url(#a)"><path fill="#E0565B" d="M56.2752 54.0679c-.4524 3.3619-2.7148 6.2709-5.8822 7.5637-1.5515.6457-3.232.8403-4.9129.6457-1.6158-.1936-3.2321-.7108-4.9125-1.6795-2.3274-1.2942-4.6545-3.2972-7.3692-6.2709 4.2665-5.236 6.8514-10.0196 7.8215-14.2852.4526-2.0041.517-3.8142.3235-5.4951-.2583-1.6158-.8403-3.1032-1.7457-4.3957-2.0039-2.9086-5.3648-4.5896-9.1141-4.5896-3.7493 0-7.1105 1.7457-9.1144 4.5896-.9054 1.2928-1.4864 2.7799-1.7454 4.3957-.2583 1.6809-.1938 3.5554.3235 5.4954.9693 4.2651 3.6194 9.1136 7.8215 14.3486-2.6503 2.9745-5.0421 4.9781-7.3694 6.2712-1.6805.9698-3.2967 1.4871-4.9125 1.6802a10.3408 10.3408 0 0 1-4.9128-.6457c-3.16754-1.2928-5.42949-4.2028-5.8823-7.564-.1936-1.6155-.06445-3.2313.58195-5.0414.1936-.6468.51727-1.2921.84-2.0683.45281-1.0339.97008-2.1335 1.48664-3.2328l.06516-.1284c4.45965-9.6321 9.24355-19.4573 14.22095-29.0238l.1938-.3886c.5173-.9687 1.0338-2.0025 1.5516-2.9726.5168-1.0345 1.0985-2.00437 1.8093-2.84531 1.3575-1.55156 3.1676-2.39179 5.1715-2.39179s3.8138.84023 5.1713 2.39203c.7111.8407 1.2928 1.81057 1.8101 2.84527.5172.9699 1.0338 2.0037 1.5511 2.9724l.1945.3886c4.9123 9.6309 9.6961 19.4561 14.1562 29.0883v.0639c.5173 1.0346.9694 2.1989 1.4867 3.2328.3234.7762.6464 1.4212.84 2.0683.5172 1.6805.7111 3.2972.4528 4.977h-.0002Zm-25.7916-3.0385c-3.4903-4.395-5.7532-8.5324-6.5288-12.022-.3227-1.4871-.3881-2.7799-.1935-3.9436.1289-1.0345.5172-1.9399 1.0335-2.7161 1.2284-1.7438 3.2968-2.8447 5.6888-2.8447 2.3918 0 4.5248 1.0353 5.6883 2.8447.5168.7762.9049 1.6816 1.034 2.7161.1939 1.1637.1292 2.521-.1938 3.9436-.7755 3.4256-3.0382 7.5626-6.5285 12.022Zm29.153-3.3609c-.323-.7758-.6464-1.6158-.9694-2.3269-.5173-1.1629-1.0345-2.2626-1.4871-3.2972l-.0647-.0639c-4.4597-9.6968-9.2435-19.5221-14.2856-29.2168l-.1936-.389c-.5173-.9696-1.0346-2.0042-1.5511-3.03822-.6469-1.16414-1.2935-2.39109-2.3274-3.55546-2.0693-2.58563-5.0421-4.00758-8.2099-4.00758-3.232 0-6.1406 1.42195-8.2741 3.8789-.9692 1.16321-1.6803 2.39133-2.3267 3.55571-.5172 1.03385-1.0345 2.06835-1.5515 3.03845l-.1939.3867c-4.9769 9.6961-9.82519 19.522-14.28558 29.2181l-.06446.1292c-.45281 1.0338-.97007 2.1323-1.48734 3.2967a42.83825 42.83825 0 0 0-.96914 2.3273c-.8407 2.3911-1.09899 4.654-.77602 6.9807.71157 4.8482 3.9436 8.9212 8.40375 10.7306 1.68019.7115 3.42559 1.0345 5.23599 1.0345.517 0 1.1634-.0647 1.6807-.1298 2.1328-.259 4.3305-.9687 6.4633-2.1975 2.6508-1.4867 5.172-3.6195 8.0159-6.7224 2.8439 3.1029 5.4297 5.236 8.0154 6.7224 2.1335 1.2288 4.331 1.9385 6.464 2.1975.5173.0651 1.1637.1298 1.6807.1298 1.8101 0 3.6197-.323 5.236-1.0345 4.5248-1.8094 7.6922-5.9468 8.4032-10.7306.5173-2.2629.2583-4.5242-.5817-6.9169l.0003.0002Z"/></g><defs><clipPath id="a"><path fill="#fff" d="M.48462.77344h60.2899v65H.48462z"/></clipPath></defs></svg>