<svg xmlns="http://www.w3.org/2000/svg" width="30" height="31" fill="none"><path fill="#02E4C0" d="M15 19c3.309 0 6-2.4668 6-5.5 0-3.0333-2.691-5.5-6-5.5s-6 2.4667-6 5.5c0 3.0332 2.691 5.5 6 5.5Zm0-8.25c1.6545 0 3 1.2334 3 2.75s-1.3455 2.75-3 2.75-3-1.2334-3-2.75 1.3455-2.75 3-2.75Z"/><path fill="#02E4C0" d="M14.2025 29.7398c.2327.1692.5115.2602.7975.2602.286 0 .5648-.091.7975-.2602.418-.301 10.2423-7.5236 10.2024-16.5397C25.9999 7.02464 21.0651 2 15 2 8.93494 2 4.00012 7.02464 4.00012 13.1931c-.03987 9.0231 9.78438 16.2457 10.20238 16.5467ZM15 4.80002c4.5498 0 8.2499 3.76743 8.2499 8.40708.0289 6.2132-6.0334 11.7923-8.2499 13.6221-2.2151-1.8312-8.27878-7.4117-8.24991-13.6291 0-4.63265 3.70011-8.40008 8.24991-8.40008Z"/></svg>