<svg xmlns="http://www.w3.org/2000/svg" width="31" height="30" fill="none"><path fill="#02E4C0" d="m10.2275 16.8016 3.5522-3.8268-7.76962-8.35667c-.60249-.64906-1.64429-.47327-2.02085.3651-.89118 2.0148-.56483 4.48935.97904 6.16607l5.25923 5.6523Zm8.5102-2.4475c1.9204.96 4.619.2839 6.6148-1.8661 2.3974-2.58271 2.8618-6.28778 1.0167-8.27553-1.8326-1.97423-5.2718-1.48743-7.6818 1.09529-1.9957 2.15002-2.6233 5.05724-1.7321 7.12614L5.58332 24.685c-.2347.2528-.36654.5957-.36654.9533 0 .3576.13184.7005.36654.9533.23469.2528.553.3949.8849.3949s.65021-.1421.88491-.3949l7.76957-8.3432 7.7571 8.3567c.1162.1252.2541.2245.406.2923.1518.0677.3145.1026.4789.1026.1643 0 .327-.0349.4789-.1026.1518-.0678.2898-.1671.406-.2923.1162-.1252.2084-.2738.2713-.4374.0628-.1635.0952-.3388.0952-.5159 0-.177-.0324-.3523-.0952-.5159-.0629-.1636-.1551-.3122-.2713-.4374l-7.7571-8.3567 1.8452-1.9877Z"/></svg>