<svg xmlns="http://www.w3.org/2000/svg" width="30" height="31" fill="none"><path fill="#fff" d="M29 7.61333c-.9929.42958-2.0734.73875-3.1864.85917 1.1555-.68853 2.0208-1.77628 2.4336-3.05917a10.90396 10.90396 0 0 1-3.5109 1.34082 5.51976 5.51976 0 0 0-1.8394-1.29914 5.50558 5.50558 0 0 0-2.2036-.455c-3.0663 0-5.5324 2.4929-5.5324 5.55209 0 .4296.0519.8592.1363 1.2725-4.5914-.2409-8.68634-2.44086-11.40872-5.8092-.49605.84978-.756 1.81736-.7528 2.80207 0 1.92663.97669 3.62543 2.46605 4.62453-.8777-.0346-1.73486-.2766-2.50174-.7062v.0684c0 2.6979 1.90145 4.9337 4.43564 5.4479a5.84296 5.84296 0 0 1-1.45691.1887c-.36018 0-.70088-.0358-1.04483-.0846.70088 2.2 2.74186 3.7979 5.17221 3.85-1.90145 1.4938-4.28313 2.3725-6.86924 2.3725-.46401 0-.89232-.0163-1.33686-.0683C4.45307 26.0888 7.36366 27 10.4981 27c10.1757 0 15.7438-8.455 15.7438-15.7938 0-.2408 0-.4816-.0162-.7225C27.303 9.69291 28.2472 8.71333 29 7.61333Z"/></svg>